<?xml version="1.0" standalone="no"?>
<!DOCTYPE svg PUBLIC "-//W3C//DTD SVG 20010904//EN"
 "http://www.w3.org/TR/2001/REC-SVG-20010904/DTD/svg10.dtd">
<svg version="1.0" xmlns="http://www.w3.org/2000/svg"
 width="130.000000pt" height="130.000000pt" viewBox="0 0 130.000000 130.000000"
 preserveAspectRatio="xMidYMid meet">
<metadata>
Created by potrace 1.11, written by Peter Selinger 2001-2013
</metadata>
<g transform="translate(0.000000,130.000000) scale(0.100000,-0.100000)"
fill="#000000" stroke="none">
<path d="M0 650 l0 -650 650 0 650 0 0 650 0 650 -650 0 -650 0 0 -650z m731
352 c48 -22 63 -41 53 -67 -11 -29 -51 -29 -85 -1 -33 28 -70 33 -115 16 -61
-24 -103 -94 -135 -231 -22 -94 -22 -144 1 -245 13 -60 64 -119 112 -129 46
-11 125 13 163 49 41 39 56 73 62 143 6 65 -6 72 -101 64 -37 -4 -89 -4 -115
-1 -38 4 -47 9 -49 27 -4 28 29 43 86 41 86 -4 240 4 274 14 29 9 41 8 53 -2
25 -20 14 -53 -22 -69 -30 -13 -32 -18 -38 -80 -8 -86 -28 -130 -84 -189 -37
-38 -58 -51 -107 -65 -125 -35 -210 -13 -272 70 -65 86 -84 240 -48 388 2 6 6
28 11 50 4 22 21 69 38 104 25 51 41 70 82 96 28 18 59 35 70 38 38 11 120 0
166 -21z"/>
</g>
</svg>
